<?xml version="1.0" encoding="UTF-8" standalone="no"?>
<svg
   xmlns:dc="http://purl.org/dc/elements/1.1/"
   xmlns:cc="http://creativecommons.org/ns#"
   xmlns:rdf="http://www.w3.org/1999/02/22-rdf-syntax-ns#"
   xmlns:svg="http://www.w3.org/2000/svg"
   xmlns="http://www.w3.org/2000/svg"
   version="1.1"
   id="scroll"
   x="0px"
   y="0px"
   viewBox="0 0 40 40"
   xml:space="preserve"
   width="40"
   height="40"><metadata
     id="metadata12"><rdf:RDF><cc:Work
         rdf:about=""><dc:format>image/svg+xml</dc:format><dc:type
           rdf:resource="http://purl.org/dc/dcmitype/StillImage" /><dc:title></dc:title></cc:Work></rdf:RDF></metadata><defs
     id="defs10" /><g
     id="arrow"
     transform="matrix(0.8,0,0,-0.69686411,-8.2,470.7317)"><path
       d="m 35.4,675.5 c -0.2,0 -0.3,-0.2 -0.3,-0.4 l 0,-56.6 c 0,-0.2 0.2,-0.4 0.3,-0.4 0.2,0 0.3,0.2 0.3,0.4 l 0,56.6 c 0,0.2 -0.1,0.4 -0.3,0.4 z"
       style="fill:#232323"
       id="path4" /><path
       d="m 59.9,647.2 c -0.1,0 -0.2,-0.1 -0.2,-0.1 l -24.4,-28 -24.4,28 c -0.2,0.2 -0.3,0.2 -0.5,0 -0.2,-0.2 -0.2,-0.4 0,-0.5 L 35,618.3 c 0.2,-0.2 0.3,-0.2 0.5,0 l 24.6,28.3 c 0.2,0.2 0.2,0.4 0,0.5 0.1,0.1 0,0.1 -0.2,0.1 z"
       style="fill:#232323"
       id="path6" /></g></svg>