<?xml version="1.0" encoding="utf-8"?>
<!-- Generator: Adobe Illustrator 18.0.0, SVG Export Plug-In . SVG Version: 6.00 Build 0)  -->
<!DOCTYPE svg PUBLIC "-//W3C//DTD SVG 1.1//EN" "http://www.w3.org/Graphics/SVG/1.1/DTD/svg11.dtd">
<svg version="1.1" id="T_Point" xmlns="http://www.w3.org/2000/svg" xmlns:xlink="http://www.w3.org/1999/xlink" x="0px" y="0px"
	 viewBox="0 0 70 70" enable-background="new 0 0 70 70" xml:space="preserve">
<g id="T_and_dot">
	<polygon id="T_red" opacity="0" fill="#FF0000" points="14.2,22.1 15.9,12.6 51.1,12.6 49.5,22.1 37.5,22.1 30.6,58.7 
		20.4,58.7 27.3,22.1 	"/>
	<polygon id="T_green" opacity="0" fill="#00FF00" points="14.2,22.1 15.9,12.6 51.1,12.6 49.5,22.1 37.5,22.1 30.6,58.7 
		20.4,58.7 27.3,22.1 	"/>
	<polygon id="T_blue" opacity="0" fill="#0000FF" points="14.2,22.1 15.9,12.6 51.1,12.6 49.5,22.1 37.5,22.1 30.6,58.7 
		20.4,58.7 27.3,22.1 	"/>
	<path id="T_black" d="M13.4,19.9v-8H48v8H35v38.7h-8.7V19.9H13.4z"/>
	<path id="dot" d="M43.9,50.5c1.8-1.8,5-1.8,6.7,0c1.8,1.8,1.8,5,0,6.8c-1.8,1.8-5,1.8-6.7,0C42.1,55.5,42.1,52.3,43.9,50.5z"
		/>
</g>
</svg>
