<?xml version="1.0" encoding="utf-8"?>
<!DOCTYPE svg PUBLIC "-//W3C//DTD SVG 1.1//EN" "http://www.w3.org/Graphics/SVG/1.1/DTD/svg11.dtd">
<svg version="1.1" id="T_shaped" xmlns="http://www.w3.org/2000/svg" xmlns:xlink="http://www.w3.org/1999/xlink" x="0px" y="0px"
	 viewBox="0 0 70 70" style="enable-background:new 0 0 70 70;" xml:space="preserve">
<g id="T_colors">
	<polygon id="green" style="fill:#02AF33;" points="18.3,19.8 18.3,12 51.9,12 51.9,19.8 39.3,19.8 39.3,57.5 30.9,57.5 30.9,19.8 	
		"/>
	<polygon id="red" style="fill:#FA0000;" points="18.3,19.8 18.3,12 51.9,12 51.9,19.8 39.3,19.8 39.3,57.5 30.9,57.5 30.9,19.8 	
		"/>
	<polygon id="blue" style="fill:#0000FA;" points="18.3,19.8 18.3,12 51.9,12 51.9,19.8 39.3,19.8 39.3,57.5 30.9,57.5 30.9,19.8 	
	"/>
	<polygon id="black" points="18.3,19.8 18.3,12 51.9,12 51.9,19.8 39.3,19.8 39.3,57.5 30.9,57.5 30.9,19.8 	"/>
</g>
</svg>
