<svg version="1.1" id="T_shaped" x="0px" y="0px"
	 viewBox="0 0 70 70" style="enable-background:new 0 0 70 70;">
<g id="T_colors">
	<polygon id="green" style="fill:#02AF33;" points="18.3,19.8 18.3,12 51.9,12 51.9,19.8 39.3,19.8 39.3,57.5 30.9,57.5 30.9,19.8 	
		"/>
	<polygon id="red" style="fill:#FA0000;" points="18.3,19.8 18.3,12 51.9,12 51.9,19.8 39.3,19.8 39.3,57.5 30.9,57.5 30.9,19.8 	
		"/>
	<polygon id="blue" style="fill:#0000FA;" points="18.3,19.8 18.3,12 51.9,12 51.9,19.8 39.3,19.8 39.3,57.5 30.9,57.5 30.9,19.8 	
	"/>
	<polygon id="black" points="18.3,19.8 18.3,12 51.9,12 51.9,19.8 39.3,19.8 39.3,57.5 30.9,57.5 30.9,19.8 	"/>
</g>
</svg>
